<svg xmlns="http://www.w3.org/2000/svg" viewBox="0 0 200 48" fill="currentColor">
  <path d="M38 24c0-9.9-8.1-18-18-18S2 14.1 2 24s8.1 18 18 18 18-8.1 18-18zm-6 0c0 6.6-5.4 12-12 12S8 30.6 8 24s5.4-12 12-12 12 5.4 12 12z"/>
  <path d="M14 24c0-3.3 2.7-6 6-6s6 2.7 6 6-2.7 6-6 6-6-2.7-6-6z"/>
  <path d="M44 24h2c0-6.6 5.4-12 12-12s12 5.4 12 12-5.4 12-12 12v-2c5.5 0 10-4.5 10-10s-4.5-10-10-10-10 4.5-10 10z"/>
  <text x="76" y="32" font-family="system-ui, -apple-system, BlinkMacSystemFont, 'Segoe UI', sans-serif" font-size="26" font-weight="700" letter-spacing="1">CORTI</text>
</svg>